<?xml version="1.0" encoding="UTF-8" standalone="no"?>
<svg
   xmlns:dc="http://purl.org/dc/elements/1.1/"
   xmlns:cc="http://creativecommons.org/ns#"
   xmlns:rdf="http://www.w3.org/1999/02/22-rdf-syntax-ns#"
   xmlns:svg="http://www.w3.org/2000/svg"
   xmlns="http://www.w3.org/2000/svg"
   xmlns:sodipodi="http://sodipodi.sourceforge.net/DTD/sodipodi-0.dtd"
   xmlns:inkscape="http://www.inkscape.org/namespaces/inkscape"
   sodipodi:docname="thermometer.svg"
   inkscape:version="1.0 (4035a4fb49, 2020-05-01)"
   id="svg8"
   version="1.1"
   viewBox="0 0 62.560379 239.15131"
   height="239.15131mm"
   width="62.560379mm">
  <defs
     id="defs2" />
  <sodipodi:namedview
     inkscape:window-maximized="1"
     inkscape:window-y="-8"
     inkscape:window-x="1912"
     inkscape:window-height="1017"
     inkscape:window-width="1920"
     showgrid="false"
     inkscape:document-rotation="0"
     inkscape:current-layer="layer1"
     inkscape:document-units="mm"
     inkscape:cy="367.49461"
     inkscape:cx="-154.31319"
     inkscape:zoom="0.82"
     inkscape:pageshadow="2"
     inkscape:pageopacity="0.0"
     borderopacity="1.0"
     bordercolor="#666666"
     pagecolor="#ffffff"
     id="base" />
  <metadata
     id="metadata5">
    <rdf:RDF>
      <cc:Work
         rdf:about="">
        <dc:format>image/svg+xml</dc:format>
        <dc:type
           rdf:resource="http://purl.org/dc/dcmitype/StillImage" />
        <dc:title></dc:title>
      </cc:Work>
    </rdf:RDF>
  </metadata>
  <g
     transform="translate(-71.151523,-57.465742)"
     id="layer1"
     inkscape:groupmode="layer"
     inkscape:label="Ebene 1">
    <path
       transform="scale(0.26458333)"
       d="m 387.19727,219.69336 c -39.69094,0 -71.64454,33.71268 -71.64454,75.58984 v 604.96875 a 115.71428,122.26415 0 0 0 -37.75781,136.04885 115.71428,122.26415 0 0 0 109.2793,82.2715 115.71428,122.26415 0 0 0 109.37305,-82.1348 A 115.71428,122.26415 0 0 0 458.8418,900.3418 V 295.2832 c 0,-41.87716 -31.95364,-75.58984 -71.64453,-75.58984 z"
       style="fill:none;stroke:#000000;stroke-width:5"
       id="path22" />
    <path
       sodipodi:open="true"
       style="fill:#ff3333"
       id="path22-6"
       sodipodi:type="arc"
       sodipodi:cx="102.33293"
       sodipodi:cy="263.74942"
       sodipodi:rx="28.086555"
       sodipodi:ry="29.676361"
       sodipodi:start="5.3806378"
       sodipodi:end="5.3800998"
       sodipodi:arc-type="arc"
       d="m 119.73571,240.45621 a 28.086555,29.676361 0 0 1 4.64492,41.67792 28.086555,29.676361 0 0 1 -39.444546,4.91345 28.086555,29.676361 0 0 1 -4.655533,-41.6766 28.086555,29.676361 0 0 1 39.443299,-4.92466" />
    <rect
       transform="scale(-1)"
       style="fill:#ff3333;stroke-width:0.901104"
       id="thermometer-bar"
       width="32.242107"
       height="207.55789"
       x="-118.63647"
       y="-268.18283"
       ry="19.095474" />
  </g>
</svg>
