<svg xmlns="http://www.w3.org/2000/svg" xmlns:xlink="http://www.w3.org/1999/xlink" id="world-map" version="1.1" viewBox="0 0 4424 2214">
  <image id="image185" width="4424" height="2214" x="0" y="0" preserveAspectRatio="none" xlink:href="world-equirectangular-blank-physical-map.jpg"/>
  <image id="image199" width="4424" height="2214" x="0" y="0" preserveAspectRatio="none" xlink:href="seal-level.2020-world-map.png"/>
  <g id="tippingPoints">
    <rect id="tippingPoint-1" width="746.043" height="156.489" x="2128.121" y="28.743" fill="#d3d3d3" stroke-width="1.167" onclick="openQuestions('tippingPoint-1')" opacity=".6" rx="35.754" ry="15.236"/>
    <text id="text38" x="2273.624" y="107.032" fill="#000" fill-opacity="1" stroke="none" font-family="sans-serif" font-size="40" font-style="normal" font-weight="400" style="line-height:1.25;white-space:pre;inline-size:681.068" transform="translate(-102.556 -16.403)" xml:space="preserve">
      <tspan x="2273.624" y="107.032"><tspan>Abschmelzen des </tspan><tspan>sommerlichen </tspan></tspan><tspan x="2273.624" y="157.032"><tspan>arktischen </tspan><tspan>Meereises</tspan></tspan>
    </text>
    <rect id="tippingPoint-2" width="449.426" height="239.052" x="1558.048" y="68.535" fill="#d3d3d3" stroke-width="1.119" onclick="openQuestions('tippingPoint-2')" opacity=".6" rx="21.539" ry="23.275"/>
    <text id="text38-7" x="2273.624" y="107.032" fill="#000" fill-opacity="1" stroke="none" font-family="sans-serif" font-size="40" font-style="normal" font-weight="400" style="line-height:1.25;white-space:pre;inline-size:363.045" transform="translate(-669.572 44.332)" xml:space="preserve">
      <tspan x="2273.624" y="107.032"><tspan>Abschmelzen des </tspan></tspan><tspan x="2273.624" y="157.032"><tspan>Grönländischen </tspan></tspan><tspan x="2273.624" y="207.032"><tspan>Eisschildes</tspan></tspan>
    </text>
    <rect id="tippingPoint-3" width="574.8" height="180.952" x="2236.904" y="2005.72" fill="#d3d3d3" stroke-width="1.102" onclick="openQuestions('tippingPoint-3')" opacity=".6" rx="27.547" ry="17.618"/>
    <text id="text38-7-9" x="2273.624" y="107.032" fill="#000" fill-opacity="1" stroke="none" font-family="sans-serif" font-size="40" font-style="normal" font-weight="400" style="line-height:1.25;white-space:pre;inline-size:531.23" transform="translate(9.284 1975.401)" xml:space="preserve">
      <tspan x="2273.624" y="107.032"><tspan>Abschmelzen des </tspan></tspan><tspan x="2273.624" y="157.032"><tspan>Antarktischen </tspan><tspan>Eisschildes</tspan></tspan>
    </text>
    <rect id="tippingPoint-4" width="449.426" height="239.052" x="1556.092" y="551.469" fill="#d3d3d3" stroke-width="1.119" onclick="openQuestions('tippingPoint-4')" opacity=".6" rx="21.539" ry="23.275"/>
    <text id="text38-7-9-6" x="2273.624" y="107.032" fill="#000" fill-opacity="1" stroke="none" font-family="sans-serif" font-size="40" font-style="normal" font-weight="400" style="line-height:1.25;white-space:pre;inline-size:363.045" transform="translate(-628.717 505.86)" xml:space="preserve">
      <tspan x="2273.624" y="107.032"><tspan>Erlahmen der </tspan></tspan><tspan x="2273.624" y="157.032"><tspan>atlantischen </tspan></tspan><tspan x="2273.624" y="207.032"><tspan>thermohalinen </tspan></tspan><tspan x="2273.624" y="257.032"><tspan>Zirkulation</tspan></tspan>
    </text>
    <rect id="tippingPoint-5" width="449.426" height="239.052" x="692.089" y="1087.019" fill="#d3d3d3" stroke-width="1.119" onclick="openQuestions('tippingPoint-5')" opacity=".6" rx="21.539" ry="23.275"/>
    <text id="text38-7-9-1" x="2273.624" y="107.032" fill="#000" fill-opacity="1" stroke="none" font-family="sans-serif" font-size="40" font-style="normal" font-weight="400" style="line-height:1.25;white-space:pre;inline-size:370.69" transform="translate(-1535.53 1062.816)" xml:space="preserve">
      <tspan x="2273.624" y="107.032"><tspan>Veränderung der </tspan></tspan><tspan x="2273.624" y="157.032"><tspan>El Niño-Southern </tspan></tspan><tspan x="2273.624" y="207.032"><tspan>Oscillation (ENSO)</tspan></tspan>
    </text>
    <rect id="tippingPoint-6" width="449.426" height="239.052" x="2928.857" y="754.816" fill="#d3d3d3" stroke-width="1.119" onclick="openQuestions('tippingPoint-6')" opacity=".6" rx="21.539" ry="23.275"/>
    <text id="text38-7-9-7" x="2273.624" y="107.032" fill="#000" fill-opacity="1" stroke="none" font-family="sans-serif" font-size="40" font-style="normal" font-weight="400" style="line-height:1.25;white-space:pre;inline-size:363.045" transform="translate(701.238 730.612)" xml:space="preserve">
      <tspan x="2273.624" y="107.032"><tspan>Zusammenbruch </tspan></tspan><tspan x="2273.624" y="157.032"><tspan>des indischen </tspan></tspan><tspan x="2273.624" y="207.032"><tspan>Sommermonsuns</tspan></tspan>
    </text>
    <rect id="tippingPoint-7" width="540.486" height="322.951" x="2255.203" y="818.511" fill="#d3d3d3" stroke-width="1.427" onclick="openQuestions('tippingPoint-7')" opacity=".6" rx="25.903" ry="31.444"/>
    <text id="text38-7-9-19" x="2273.624" y="107.032" fill="#000" fill-opacity="1" stroke="none" font-family="sans-serif" font-size="40" font-style="normal" font-weight="400" style="line-height:1.25;white-space:pre;inline-size:470.071" transform="translate(34.302 788.192)" xml:space="preserve">
      <tspan x="2273.624" y="107.032"><tspan>Veränderungen im </tspan></tspan><tspan x="2273.624" y="157.032"><tspan>Westafrikanischen </tspan></tspan><tspan x="2273.624" y="207.032"><tspan>Monsunsystem mit </tspan></tspan><tspan x="2273.624" y="257.032"><tspan>Auswirkungen auf </tspan></tspan><tspan x="2273.624" y="307.032"><tspan>Sahara und Sahelzone</tspan></tspan>
    </text>
    <rect id="tippingPoint-8" width="421.316" height="239.052" x="1284.55" y="1076.208" fill="#d3d3d3" stroke-width="1.084" onclick="openQuestions('tippingPoint-8')" opacity=".6" rx="20.192" ry="23.275"/>
    <text id="text38-7-9-2" x="2273.624" y="107.032" fill="#000" fill-opacity="1" stroke="none" font-family="sans-serif" font-size="40" font-style="normal" font-weight="400" style="line-height:1.25;white-space:pre;inline-size:363.045" transform="translate(-943.07 1052.005)" xml:space="preserve">
      <tspan x="2273.624" y="107.032"><tspan>Entwaldung des </tspan></tspan><tspan x="2273.624" y="157.032"><tspan>tropischen </tspan></tspan><tspan x="2273.624" y="207.032"><tspan>Regenwaldes</tspan></tspan>
    </text>
    <rect id="tippingPoint-9" width="398.612" height="212.024" x="730.298" y="425.036" fill="#d3d3d3" stroke-width=".993" onclick="openQuestions('tippingPoint-9')" opacity=".6" rx="19.104" ry="20.643"/>
    <text id="text38-7-9-2-3" x="2273.624" y="107.032" fill="#000" fill-opacity="1" stroke="none" font-family="sans-serif" font-size="40" font-style="normal" font-weight="400" style="line-height:1.25;white-space:pre;inline-size:363.045" transform="translate(-1501.646 412.725)" xml:space="preserve">
      <tspan x="2273.624" y="107.032"><tspan>Rückgang </tspan></tspan><tspan x="2273.624" y="157.032"><tspan>borealer Wälder</tspan></tspan>
    </text>
    <rect id="bonus" width="302.317" height="160.804" x="2188.921" y="426.064" fill="#d3d3d3" stroke-width=".753" onclick="openQuestions('tippingPoint-9')" opacity=".6" rx="14.489" ry="15.656"/>
    <text id="text38-7-9-2-3-3" x="2273.624" y="107.032" fill="#000" fill-opacity="1" stroke="none" font-family="sans-serif" font-size="40" font-style="normal" font-weight="400" style="line-height:1.25;white-space:pre;inline-size:363.045" transform="translate(-51.432 411.46)" xml:space="preserve">
      <tspan x="2273.624" y="107.032"><tspan>Bonusfrage</tspan></tspan>
    </text>
    <rect id="tippingPoint-10" width="398.612" height="212.024" x="3304.749" y="217.899" fill="#d3d3d3" stroke-width=".993" onclick="openQuestions('tippingPoint-9')" opacity=".6" rx="19.104" ry="20.643"/>
    <text id="text38-7-9-2-3-30" x="2273.624" y="107.032" fill="#000" fill-opacity="1" stroke="none" font-family="sans-serif" font-size="40" font-style="normal" font-weight="400" style="line-height:1.25;white-space:pre;inline-size:363.045" transform="translate(1072.805 205.588)" xml:space="preserve">
      <tspan x="2273.624" y="107.032"><tspan>Auftauen der </tspan></tspan><tspan x="2273.624" y="157.032"><tspan>Permafrostböden</tspan></tspan>
    </text>
  </g>
  <g id="thermometer" transform="translate(-146.319 1391.905) scale(2.62745)">
    <path id="path22" fill="none" stroke="#000" stroke-width="1.323" d="M102.446 58.127c-10.502 0-18.956 8.92-18.956 20v160.065a30.616 32.35 0 00-9.99 35.996 30.616 32.35 0 0028.913 21.768 30.616 32.35 0 0028.939-21.732 30.616 32.35 0 00-9.95-36.009V78.127c0-11.08-8.455-20-18.956-20z"/>
    <path id="path22-6" fill="#f33" d="M119.736 240.456a28.087 29.676 0 014.645 41.678 28.087 29.676 0 01-39.445 4.914 28.087 29.676 0 01-4.655-41.677 28.087 29.676 0 0139.443-4.925"/>
    <rect id="thermometer-bar" width="32.242" height="207.558" x="-118.636" y="-268.183" fill="#f33" stroke-width=".901" ry="19.095" transform="scale(-1)"/>
    <rect id="rect10-4" width="25.974" height="9.425" x="123.423" y="206.989" fill="#000" stroke-width=".283" rx="5.054" ry="4.712"/>
    <rect id="rect10-4-6" width="25.974" height="9.425" x="123.423" y="188.472" fill="#000" stroke-width=".283" rx="5.054" ry="4.712"/>
    <rect id="rect10-4-1" width="25.974" height="9.425" x="123.423" y="169.955" fill="#000" stroke-width=".283" rx="5.054" ry="4.712"/>
    <rect id="rect10-4-6-3" width="25.974" height="9.425" x="123.423" y="114.404" fill="#000" stroke-width=".283" rx="5.054" ry="4.712"/>
    <rect id="rect10-4-1-8" width="25.974" height="9.425" x="123.423" y="95.887" fill="#000" stroke-width=".283" rx="5.054" ry="4.712"/>
    <rect id="rect10-4-6-8-0" width="36.013" height="9.425" x="123.423" y="77.371" fill="#000" stroke-width=".333" rx="4.955" ry="4.712"/>
    <rect id="rect10-4-6-8-0-1" width="36.013" height="9.425" x="123.423" y="151.438" fill="#000" stroke-width=".333" rx="4.955" ry="4.712"/>
    <rect id="rect10-4-6-8-0-1-9" width="36.013" height="9.425" x="123.423" y="225.505" fill="#000" stroke-width=".333" rx="4.955" ry="4.712"/>
    <rect id="rect10-4-6-8-00" width="25.974" height="9.425" x="123.423" y="132.921" fill="#000" stroke-width=".283" rx="5.054" ry="4.712"/>
    <text id="text181" x="160.105" y="237.702" fill="#000" fill-opacity="1" stroke="none" stroke-width=".265" font-family="sans-serif" font-size="21.167" font-style="normal" font-weight="400" style="line-height:1.25" xml:space="preserve">
      <tspan id="tspan179" x="160.105" y="237.702" stroke-width=".265" font-size="21.167">+ 0</tspan>
    </text>
    <text id="text181-0" x="160.233" y="163.627" fill="#000" fill-opacity="1" stroke="none" stroke-width=".265" font-family="sans-serif" font-size="21.167" font-style="normal" font-weight="400" style="line-height:1.25" xml:space="preserve">
      <tspan id="tspan179-6" x="160.233" y="163.627" stroke-width=".265" font-size="21.167">+ 1</tspan>
    </text>
    <text id="text181-0-9" x="160.06" y="88.434" fill="#000" fill-opacity="1" stroke="none" stroke-width=".265" font-family="sans-serif" font-size="21.167" font-style="normal" font-weight="400" style="line-height:1.25" xml:space="preserve">
      <tspan id="tspan179-6-3" x="160.06" y="88.434" stroke-width=".265" font-size="21.167">+ 1,5</tspan>
    </text>
  </g>
</svg>
